<?xml version="1.0" encoding="UTF-8"?>
<svg xmlns="http://www.w3.org/2000/svg" xmlns:xlink="http://www.w3.org/1999/xlink" width="300px" height="60px" viewBox="0 0 300 60" version="1.1">
<defs>
<filter id="alpha" filterUnits="objectBoundingBox" x="0%" y="0%" width="100%" height="100%">
  <feColorMatrix type="matrix" in="SourceGraphic" values="0 0 0 0 1 0 0 0 0 1 0 0 0 0 1 0 0 0 1 0"/>
</filter>
<mask id="mask0">
  <g filter="url(#alpha)">
<rect x="0" y="0" width="300" height="60" style="fill:rgb(0%,0%,0%);fill-opacity:0.501961;stroke:none;"/>
  </g>
</mask>
<clipPath id="clip1">
  <rect x="0" y="0" width="300" height="61"/>
</clipPath>
<g id="surface5" clip-path="url(#clip1)">
<path style=" stroke:none;fill-rule:evenodd;fill:rgb(100%,77.647059%,0%);fill-opacity:1;" d="M 0.226562 -0.0664062 C 6.574219 -0.0664062 12.925781 -0.0664062 19.273438 -0.0664062 C 19.273438 19.933594 19.273438 39.933594 19.273438 59.933594 C 12.925781 59.933594 6.574219 59.933594 0.226562 59.933594 C 0.226562 39.933594 0.226562 19.933594 0.226562 -0.0664062 Z M 0.226562 -0.0664062 "/>
</g>
<mask id="mask1">
  <g filter="url(#alpha)">
<rect x="0" y="0" width="300" height="60" style="fill:rgb(0%,0%,0%);fill-opacity:0.741176;stroke:none;"/>
  </g>
</mask>
<clipPath id="clip2">
  <rect x="0" y="0" width="300" height="61"/>
</clipPath>
<g id="surface8" clip-path="url(#clip2)">
<path style=" stroke:none;fill-rule:evenodd;fill:rgb(100%,78.039216%,0%);fill-opacity:1;" d="M 23.324219 -0.0664062 C 29.726562 -0.0664062 36.125 -0.0664062 42.523438 -0.0664062 C 42.523438 19.933594 42.523438 39.933594 42.523438 59.933594 C 36.125 59.933594 29.726562 59.933594 23.324219 59.933594 C 23.324219 39.933594 23.324219 19.933594 23.324219 -0.0664062 Z M 23.324219 -0.0664062 "/>
</g>
<mask id="mask2">
  <g filter="url(#alpha)">
<rect x="0" y="0" width="300" height="60" style="fill:rgb(0%,0%,0%);fill-opacity:0.988235;stroke:none;"/>
  </g>
</mask>
<clipPath id="clip3">
  <rect x="0" y="0" width="300" height="61"/>
</clipPath>
<g id="surface11" clip-path="url(#clip3)">
<path style=" stroke:none;fill-rule:evenodd;fill:rgb(100%,78.039216%,0%);fill-opacity:1;" d="M 46.425781 -0.0664062 C 52.824219 -0.0664062 59.226562 -0.0664062 65.625 -0.0664062 C 65.625 19.933594 65.625 39.933594 65.625 59.933594 C 59.226562 59.933594 52.824219 59.933594 46.425781 59.933594 C 46.425781 39.933594 46.425781 19.933594 46.425781 -0.0664062 Z M 46.425781 -0.0664062 "/>
</g>
<mask id="mask3">
  <g filter="url(#alpha)">
<rect x="0" y="0" width="300" height="60" style="fill:rgb(0%,0%,0%);fill-opacity:0.976471;stroke:none;"/>
  </g>
</mask>
<clipPath id="clip4">
  <rect x="0" y="0" width="300" height="61"/>
</clipPath>
<g id="surface14" clip-path="url(#clip4)">
<path style=" stroke:none;fill-rule:evenodd;fill:rgb(100%,78.431373%,0%);fill-opacity:1;" d="M 244.875 8.210938 C 245.101562 8.210938 245.277344 8.296875 245.398438 8.46875 C 250.960938 15.203125 252.210938 22.488281 249.148438 30.324219 C 247.746094 33.683594 245.523438 36.550781 242.476562 38.921875 C 239.5 40.871094 236.675781 40.679688 234 38.339844 C 232.953125 36.8125 232.65625 35.171875 233.101562 33.425781 C 234.054688 29.515625 236.132812 26.132812 239.324219 23.277344 C 240.070312 22.695312 240.871094 22.179688 241.726562 21.722656 C 243.492188 21.269531 245.070312 21.589844 246.449219 22.695312 C 246.390625 21.097656 246.039062 19.546875 245.398438 18.039062 C 244.191406 15.542969 242.765625 13.148438 241.125 10.863281 C 242.003906 9.566406 243.253906 8.679688 244.875 8.210938 Z M 246.375 23.859375 C 246.742188 23.90625 246.890625 24.101562 246.824219 24.441406 C 246.542969 29.539062 244.441406 33.976562 240.523438 37.757812 C 240 38.09375 239.449219 38.394531 238.875 38.664062 C 237.730469 38.753906 237.054688 38.300781 236.851562 37.304688 C 236.941406 35.171875 237.640625 33.191406 238.949219 31.359375 C 240.808594 28.398438 243.285156 25.898438 246.375 23.859375 Z M 246.375 23.859375 "/>
</g>
<mask id="mask4">
  <g filter="url(#alpha)">
<rect x="0" y="0" width="300" height="60" style="fill:rgb(0%,0%,0%);fill-opacity:0.976471;stroke:none;"/>
  </g>
</mask>
<clipPath id="clip5">
  <rect x="0" y="0" width="300" height="61"/>
</clipPath>
<g id="surface17" clip-path="url(#clip5)">
<path style=" stroke:none;fill-rule:evenodd;fill:rgb(100%,78.431373%,0%);fill-opacity:1;" d="M 102.074219 11.574219 C 103.828125 11.367188 105.003906 11.972656 105.601562 13.382812 C 105.878906 14.011719 106.054688 14.65625 106.125 15.324219 C 104.699219 15.277344 103.277344 15.234375 101.851562 15.195312 C 100.109375 15.1875 98.382812 15.316406 96.675781 15.582031 C 92.367188 23.886719 89.21875 32.507812 87.226562 41.445312 C 84.980469 41.101562 83.378906 40.046875 82.425781 38.277344 C 84.632812 31.921875 87.105469 25.652344 89.851562 19.460938 C 90.273438 18.347656 90.648438 17.230469 90.976562 16.097656 C 89.179688 16.273438 87.378906 16.40625 85.574219 16.488281 C 82.582031 16.625 81.257812 15.417969 81.601562 12.867188 C 81.613281 12.59375 81.738281 12.375 81.976562 12.21875 C 82.605469 12.402344 83.257812 12.507812 83.925781 12.542969 C 90.019531 12.550781 96.070312 12.226562 102.074219 11.574219 Z M 102.074219 11.574219 "/>
</g>
<mask id="mask5">
  <g filter="url(#alpha)">
<rect x="0" y="0" width="300" height="60" style="fill:rgb(0%,0%,0%);fill-opacity:0.976471;stroke:none;"/>
  </g>
</mask>
<clipPath id="clip6">
  <rect x="0" y="0" width="300" height="61"/>
</clipPath>
<g id="surface20" clip-path="url(#clip6)">
<path style=" stroke:none;fill-rule:evenodd;fill:rgb(100%,78.431373%,0%);fill-opacity:1;" d="M 161.625 11.703125 C 164.078125 11.921875 166.28125 12.675781 168.226562 13.964844 C 167.679688 15.113281 167.257812 16.300781 166.949219 17.523438 C 165.449219 24.144531 164.921875 30.824219 165.375 37.566406 C 167.652344 33.980469 169.628906 30.273438 171.300781 26.445312 C 173.539062 21.621094 175.464844 16.707031 177.074219 11.703125 C 179.261719 11.90625 181.3125 12.488281 183.226562 13.449219 C 183.46875 13.59375 183.617188 13.785156 183.675781 14.03125 C 182.449219 17.269531 181.675781 20.585938 181.351562 23.988281 C 180.769531 28.332031 180.617188 32.6875 180.898438 37.046875 C 184.628906 28.636719 189.078125 20.535156 194.25 12.738281 C 194.480469 12.578125 194.65625 12.382812 194.773438 12.15625 C 196.417969 12.300781 197.765625 12.925781 198.824219 14.03125 C 197.824219 14.871094 196.902344 15.777344 196.050781 16.746094 C 190.539062 24.308594 185.9375 32.28125 182.25 40.667969 C 181.015625 41.265625 179.742188 41.328125 178.425781 40.863281 C 177.425781 40.636719 176.554688 40.226562 175.800781 39.632812 C 175.480469 37.640625 175.304688 35.636719 175.273438 33.621094 C 175.453125 29.453125 175.730469 25.292969 176.101562 21.140625 C 174.496094 25.242188 172.746094 29.296875 170.851562 33.296875 C 169.660156 35.777344 168.308594 38.191406 166.800781 40.539062 C 166.011719 41.011719 165.136719 41.203125 164.175781 41.121094 C 162.609375 41.003906 161.285156 40.464844 160.199219 39.503906 C 159.835938 36.019531 159.738281 32.527344 159.898438 29.03125 C 160.503906 23.253906 161.082031 17.480469 161.625 11.703125 Z M 161.625 11.703125 "/>
</g>
<mask id="mask6">
  <g filter="url(#alpha)">
<rect x="0" y="0" width="300" height="60" style="fill:rgb(0%,0%,0%);fill-opacity:0.960784;stroke:none;"/>
  </g>
</mask>
<clipPath id="clip7">
  <rect x="0" y="0" width="300" height="61"/>
</clipPath>
<g id="surface23" clip-path="url(#clip7)">
<path style=" stroke:none;fill-rule:evenodd;fill:rgb(100%,78.431373%,0%);fill-opacity:1;" d="M 122.773438 13.640625 C 124.9375 13.847656 126.6875 14.691406 128.023438 16.164062 C 126.335938 17.835938 124.710938 19.539062 123.148438 21.273438 C 122.71875 21.160156 122.367188 20.941406 122.101562 20.625 C 122.035156 19.804688 121.863281 19.007812 121.574219 18.234375 C 121.796875 16.664062 122.199219 15.136719 122.773438 13.640625 Z M 122.773438 13.640625 "/>
</g>
<mask id="mask7">
  <g filter="url(#alpha)">
<rect x="0" y="0" width="300" height="60" style="fill:rgb(0%,0%,0%);fill-opacity:0.972549;stroke:none;"/>
  </g>
</mask>
<clipPath id="clip8">
  <rect x="0" y="0" width="300" height="61"/>
</clipPath>
<g id="surface26" clip-path="url(#clip8)">
<path style=" stroke:none;fill-rule:evenodd;fill:rgb(100%,78.431373%,0%);fill-opacity:1;" d="M 131.773438 18.425781 C 133.457031 18.601562 134.957031 19.140625 136.273438 20.042969 C 134.15625 22.253906 132.632812 24.734375 131.699219 27.476562 C 133.453125 25.277344 135.679688 23.53125 138.375 22.242188 C 139.988281 21.839844 141.414062 22.121094 142.648438 23.082031 C 143.167969 23.71875 143.390625 24.429688 143.324219 25.214844 C 143.128906 30.046875 140.878906 33.96875 136.574219 36.984375 C 135.589844 37.558594 134.542969 38.03125 133.425781 38.40625 C 132.21875 38.734375 131.070312 38.648438 129.976562 38.148438 C 129.71875 38 129.644531 37.804688 129.75 37.566406 C 132.382812 35.898438 134.484375 33.828125 136.050781 31.359375 C 137.691406 28.839844 138.789062 26.164062 139.351562 23.339844 C 138.183594 23.957031 137.058594 24.625 135.976562 25.34375 C 133.425781 27.734375 131.152344 30.300781 129.148438 33.039062 C 128.339844 34.699219 127.589844 36.378906 126.898438 38.082031 C 125.28125 42.585938 123.78125 47.113281 122.398438 51.660156 C 121.875 51.378906 121.449219 51.011719 121.125 50.558594 C 120.597656 50.449219 120.269531 50.167969 120.148438 49.71875 C 119.625 47.640625 119.675781 45.574219 120.300781 43.511719 C 120.960938 41.148438 121.761719 38.824219 122.699219 36.53125 C 124.875 31.875 126.925781 27.175781 128.851562 22.433594 C 129.5625 20.941406 130.535156 19.605469 131.773438 18.425781 Z M 131.773438 18.425781 "/>
</g>
<mask id="mask8">
  <g filter="url(#alpha)">
<rect x="0" y="0" width="300" height="60" style="fill:rgb(0%,0%,0%);fill-opacity:0.968627;stroke:none;"/>
  </g>
</mask>
<clipPath id="clip9">
  <rect x="0" y="0" width="300" height="61"/>
</clipPath>
<g id="surface29" clip-path="url(#clip9)">
<path style=" stroke:none;fill-rule:evenodd;fill:rgb(100%,78.431373%,0%);fill-opacity:1;" d="M 294.074219 19.71875 C 294.429688 19.699219 294.777344 19.71875 295.125 19.785156 C 297.105469 20.84375 298.605469 22.265625 299.625 24.050781 C 299.5 25.589844 298.847656 26.925781 297.675781 28.058594 C 297.121094 28.230469 296.773438 28.078125 296.625 27.609375 C 296.863281 26.933594 297.109375 26.265625 297.375 25.601562 C 297.28125 24.703125 296.730469 24.355469 295.726562 24.570312 C 294.679688 25.015625 294.003906 25.726562 293.699219 26.703125 C 293.171875 28.398438 292.949219 30.121094 293.023438 31.875 C 294.027344 31.875 295.023438 31.875 296.023438 31.875 C 296.0625 32.171875 296.011719 32.453125 295.875 32.714844 C 295.117188 32.867188 294.367188 33.039062 293.625 33.234375 C 293.410156 33.292969 293.234375 33.402344 293.101562 33.554688 C 293.382812 35.738281 292.882812 37.765625 291.601562 39.632812 C 290.082031 41.160156 288.15625 42.023438 285.824219 42.21875 C 284.3125 41.902344 283.089844 41.214844 282.148438 40.152344 C 281.683594 39.171875 281.683594 38.179688 282.148438 37.175781 C 283.71875 34.125 286.441406 32.445312 290.324219 32.132812 C 290.140625 30.296875 289.765625 28.484375 289.199219 26.703125 C 288.945312 23.390625 290.570312 21.0625 294.074219 19.71875 Z M 290.175781 34.203125 C 290.363281 34.308594 290.460938 34.484375 290.476562 34.71875 C 289.984375 36.925781 288.683594 38.667969 286.574219 39.957031 C 285.5625 40.449219 285.011719 40.167969 284.925781 39.117188 C 285.84375 36.816406 287.59375 35.179688 290.175781 34.203125 Z M 290.175781 34.203125 "/>
</g>
<mask id="mask9">
  <g filter="url(#alpha)">
<rect x="0" y="0" width="300" height="60" style="fill:rgb(0%,0%,0%);fill-opacity:0.972549;stroke:none;"/>
  </g>
</mask>
<clipPath id="clip10">
  <rect x="0" y="0" width="300" height="61"/>
</clipPath>
<g id="surface32" clip-path="url(#clip10)">
<path style=" stroke:none;fill-rule:evenodd;fill:rgb(100%,78.431373%,0%);fill-opacity:1;" d="M 217.726562 20.753906 C 218.765625 20.9375 219.589844 21.410156 220.199219 22.175781 C 220.742188 22.808594 221.167969 23.5 221.476562 24.246094 C 221.242188 24.777344 220.964844 25.296875 220.648438 25.796875 C 218.808594 28.238281 217.15625 30.785156 215.699219 33.425781 C 215.597656 33.554688 215.597656 33.683594 215.699219 33.816406 C 217.15625 32.429688 218.554688 31.007812 219.898438 29.546875 C 221.425781 28.058594 223.050781 26.660156 224.773438 25.34375 C 225.84375 24.597656 226.992188 23.949219 228.226562 23.40625 C 230.371094 22.777344 231.917969 23.359375 232.875 25.152344 C 232.410156 25.40625 231.984375 25.707031 231.601562 26.054688 C 229.292969 28.910156 227.820312 32.058594 227.175781 35.496094 C 227.246094 35.914062 227.394531 36.300781 227.625 36.660156 C 227.839844 36.730469 228.066406 36.777344 228.300781 36.789062 C 228.914062 36.613281 229.539062 36.546875 230.175781 36.59375 C 230.289062 36.78125 230.390625 36.976562 230.476562 37.175781 C 228.878906 38.621094 226.976562 39.074219 224.773438 38.535156 C 223.480469 38.007812 222.808594 37.125 222.75 35.882812 C 222.621094 34.832031 222.722656 33.796875 223.050781 32.78125 C 223.609375 31.386719 224.160156 30.007812 224.699219 28.640625 C 223.984375 28.957031 223.308594 29.324219 222.675781 29.742188 C 219 32.734375 215.773438 36.03125 213 39.632812 C 212.132812 40.34375 211.433594 40.214844 210.898438 39.246094 C 209.945312 37.703125 209.84375 36.109375 210.601562 34.460938 C 212.050781 29.507812 214.421875 24.941406 217.726562 20.753906 Z M 217.726562 20.753906 "/>
</g>
<mask id="mask10">
  <g filter="url(#alpha)">
<rect x="0" y="0" width="300" height="60" style="fill:rgb(0%,0%,0%);fill-opacity:0.968627;stroke:none;"/>
  </g>
</mask>
<clipPath id="clip11">
  <rect x="0" y="0" width="300" height="61"/>
</clipPath>
<g id="surface35" clip-path="url(#clip11)">
<path style=" stroke:none;fill-rule:evenodd;fill:rgb(100%,78.431373%,0%);fill-opacity:1;" d="M 102.976562 20.882812 C 104.625 21.164062 106.078125 21.789062 107.324219 22.757812 C 105.648438 24.550781 104.472656 26.554688 103.800781 28.773438 C 106.453125 26.871094 108.730469 24.695312 110.625 22.242188 C 111.757812 21.871094 112.757812 22.046875 113.625 22.757812 C 112.914062 24.316406 112.691406 25.933594 112.949219 27.609375 C 113.074219 27.929688 113.199219 28.253906 113.324219 28.578125 C 112.867188 29.339844 112.265625 30.007812 111.523438 30.582031 C 109.917969 29.882812 108.792969 28.804688 108.148438 27.347656 C 104.035156 29.605469 101.433594 32.796875 100.351562 36.917969 C 100.054688 37.8125 99.828125 38.71875 99.675781 39.632812 C 98.273438 39.429688 97.097656 38.867188 96.148438 37.953125 C 96.050781 37.609375 96.050781 37.261719 96.148438 36.917969 C 97.53125 32.054688 99.328125 27.316406 101.550781 22.695312 C 101.914062 22.019531 102.390625 21.417969 102.976562 20.882812 Z M 102.976562 20.882812 "/>
</g>
<mask id="mask11">
  <g filter="url(#alpha)">
<rect x="0" y="0" width="300" height="60" style="fill:rgb(0%,0%,0%);fill-opacity:0.972549;stroke:none;"/>
  </g>
</mask>
<clipPath id="clip12">
  <rect x="0" y="0" width="300" height="61"/>
</clipPath>
<g id="surface38" clip-path="url(#clip12)">
<path style=" stroke:none;fill-rule:evenodd;fill:rgb(100%,78.431373%,0%);fill-opacity:1;" d="M 274.726562 20.882812 C 276.402344 21.128906 277.851562 21.753906 279.074219 22.757812 C 277.398438 24.550781 276.222656 26.554688 275.550781 28.773438 C 278.203125 26.871094 280.480469 24.695312 282.375 22.242188 C 283.507812 21.871094 284.507812 22.046875 285.375 22.757812 C 284.507812 24.667969 284.410156 26.605469 285.074219 28.578125 C 284.617188 29.339844 284.015625 30.007812 283.273438 30.582031 C 281.738281 29.828125 280.613281 28.753906 279.898438 27.347656 C 276.128906 29.410156 273.628906 32.300781 272.398438 36.011719 C 271.980469 37.203125 271.65625 38.410156 271.425781 39.632812 C 270.023438 39.429688 268.847656 38.867188 267.898438 37.953125 C 267.800781 37.609375 267.800781 37.261719 267.898438 36.917969 C 269.351562 31.605469 271.402344 26.476562 274.050781 21.53125 C 274.304688 21.332031 274.53125 21.117188 274.726562 20.882812 Z M 274.726562 20.882812 "/>
</g>
<mask id="mask12">
  <g filter="url(#alpha)">
<rect x="0" y="0" width="300" height="60" style="fill:rgb(0%,0%,0%);fill-opacity:0.968627;stroke:none;"/>
  </g>
</mask>
<clipPath id="clip13">
  <rect x="0" y="0" width="300" height="61"/>
</clipPath>
<g id="surface41" clip-path="url(#clip13)">
<path style=" stroke:none;fill-rule:evenodd;fill:rgb(100%,78.431373%,0%);fill-opacity:1;" d="M 202.875 21.140625 C 203.25 21.117188 203.597656 21.179688 203.925781 21.335938 C 204.84375 22 205.59375 22.773438 206.175781 23.664062 C 207.421875 23.515625 208.296875 23.925781 208.800781 24.890625 C 209.753906 29.925781 207.980469 34.085938 203.476562 37.371094 C 201.675781 38.511719 199.675781 39.265625 197.476562 39.632812 C 195.175781 39.355469 193.601562 38.277344 192.75 36.402344 C 191.980469 33.933594 192.179688 31.519531 193.351562 29.160156 C 194.921875 25.820312 197.546875 23.296875 201.226562 21.59375 C 201.789062 21.425781 202.339844 21.273438 202.875 21.140625 Z M 205.125 24.632812 C 205.367188 24.617188 205.542969 24.703125 205.648438 24.890625 C 206.527344 29.351562 205.101562 33.164062 201.375 36.335938 C 200.203125 37.175781 198.878906 37.757812 197.398438 38.082031 C 196.707031 37.328125 196.382812 36.46875 196.425781 35.496094 C 197.023438 31.507812 199.125 28.253906 202.726562 25.734375 C 203.515625 25.328125 204.316406 24.960938 205.125 24.632812 Z M 205.125 24.632812 "/>
</g>
<mask id="mask13">
  <g filter="url(#alpha)">
<rect x="0" y="0" width="300" height="60" style="fill:rgb(0%,0%,0%);fill-opacity:0.964706;stroke:none;"/>
  </g>
</mask>
<clipPath id="clip14">
  <rect x="0" y="0" width="300" height="61"/>
</clipPath>
<g id="surface44" clip-path="url(#clip14)">
<path style=" stroke:none;fill-rule:evenodd;fill:rgb(100%,78.431373%,0%);fill-opacity:1;" d="M 262.273438 21.273438 C 264.226562 21.175781 265.753906 21.820312 266.851562 23.210938 C 266.957031 26.410156 265.582031 29.019531 262.726562 31.035156 C 260.613281 32.355469 258.3125 33.367188 255.824219 34.074219 C 255.433594 37.957031 257.183594 38.882812 261.074219 36.851562 C 262.585938 35.917969 263.988281 34.863281 265.273438 33.683594 C 265.574219 33.859375 265.824219 34.074219 266.023438 34.332031 C 264.367188 36.386719 262.269531 38 259.726562 39.179688 C 256.679688 40.160156 254.203125 39.492188 252.300781 37.175781 C 251.933594 36.65625 251.683594 36.09375 251.550781 35.496094 C 251.339844 30.40625 253.515625 26.246094 258.074219 23.015625 C 259.351562 22.1875 260.75 21.605469 262.273438 21.273438 Z M 263.773438 24.632812 C 263.757812 26.117188 263.183594 27.453125 262.050781 28.640625 C 260.410156 30.226562 258.511719 31.519531 256.351562 32.523438 C 257.128906 29.734375 258.804688 27.429688 261.375 25.601562 C 262.132812 25.167969 262.933594 24.847656 263.773438 24.632812 Z M 263.773438 24.632812 "/>
</g>
<mask id="mask14">
  <g filter="url(#alpha)">
<rect x="0" y="0" width="300" height="60" style="fill:rgb(0%,0%,0%);fill-opacity:0.972549;stroke:none;"/>
  </g>
</mask>
<clipPath id="clip15">
  <rect x="0" y="0" width="300" height="61"/>
</clipPath>
<g id="surface47" clip-path="url(#clip15)">
<path style=" stroke:none;fill-rule:evenodd;fill:rgb(100%,78.431373%,0%);fill-opacity:1;" d="M 119.175781 23.210938 C 120.976562 23.515625 122.378906 24.335938 123.375 25.667969 C 121.996094 27.097656 120.921875 28.691406 120.148438 30.453125 C 119.070312 32.730469 118.167969 35.058594 117.449219 37.433594 C 117.375 37.949219 117.351562 38.46875 117.375 38.988281 C 115.246094 38.703125 114.097656 37.625 113.925781 35.753906 C 114.351562 32.765625 115.078125 29.835938 116.101562 26.960938 C 116.695312 25.4375 117.722656 24.1875 119.175781 23.210938 Z M 119.175781 23.210938 "/>
</g>
</defs>
<g id="surface1">
<use xlink:href="#surface5" mask="url(#mask0)"/>
<use xlink:href="#surface8" mask="url(#mask1)"/>
<use xlink:href="#surface11" mask="url(#mask2)"/>
<use xlink:href="#surface14" mask="url(#mask3)"/>
<use xlink:href="#surface17" mask="url(#mask4)"/>
<use xlink:href="#surface20" mask="url(#mask5)"/>
<use xlink:href="#surface23" mask="url(#mask6)"/>
<use xlink:href="#surface26" mask="url(#mask7)"/>
<use xlink:href="#surface29" mask="url(#mask8)"/>
<use xlink:href="#surface32" mask="url(#mask9)"/>
<use xlink:href="#surface35" mask="url(#mask10)"/>
<use xlink:href="#surface38" mask="url(#mask11)"/>
<use xlink:href="#surface41" mask="url(#mask12)"/>
<use xlink:href="#surface44" mask="url(#mask13)"/>
<use xlink:href="#surface47" mask="url(#mask14)"/>
</g>
</svg>
